<svg id="圖層_1" data-name="圖層 1" xmlns="http://www.w3.org/2000/svg" viewBox="0 0 180 180"><rect width="180" height="180" rx="48" fill="#e26544"/><path d="M301.09,488.65l-6.23,16a4.59,4.59,0,0,1-4.27,2.93h-7.42a4.58,4.58,0,0,1-4.58-4.58,4.39,4.39,0,0,1,.32-1.56l4.86-13.11m36.39-25.3-13.75,41.25h28.41Zm0-31.53L306.41,473H289.49l23.19-62.88a4.6,4.6,0,0,1,4.27-3h8.2a4.59,4.59,0,0,1,4.31,3.07l33,91.12a4.57,4.57,0,0,1-2.52,5.95l-.27.14a4.66,4.66,0,0,1-1.61.28h-7.56a4.59,4.59,0,0,1-4.31-3Z" transform="translate(-202.43 -367.39)" fill="#f7f7f7"/><path d="M226.7,485.12h75a4.59,4.59,0,0,0,0-9.17h-75a4.59,4.59,0,0,0,0,9.17Z" transform="translate(-202.43 -367.39)" fill="#f7f7f7"/><path d="M234.31,468H268a4.58,4.58,0,1,0,0-9.16H234.31a4.58,4.58,0,0,0,0,9.16Z" transform="translate(-202.43 -367.39)" fill="#f7f7f7"/><path d="M259.2,493.37H226.7a4.58,4.58,0,0,0,0,9.16h32.55a4.58,4.58,0,0,0,0-9.16Z" transform="translate(-202.43 -367.39)" fill="#f7f7f7"/></svg>