<svg id="圖層_1" data-name="圖層 1" xmlns="http://www.w3.org/2000/svg" viewBox="0 0 32 32"><rect width="32" height="32" rx="8" fill="#e26544"/><path d="M294,463l-1.11,2.85a.81.81,0,0,1-.75.52h-1.32a.82.82,0,0,1-.82-.81.67.67,0,0,1,.06-.28l.86-2.33m6.47-4.5-2.44,7.33H300Zm0-5.61-2.44,7.38h-3L296,449a.83.83,0,0,1,.76-.54h1.46a.82.82,0,0,1,.77.55l5.85,16.2a.8.8,0,0,1-.44,1.05l-.05,0a.93.93,0,0,1-.29.05h-1.34a.82.82,0,0,1-.77-.54Z" transform="translate(-276.43 -441.39)" fill="#f7f7f7"/><path d="M280.75,462.32h13.34a.82.82,0,0,0,.81-.82.81.81,0,0,0-.81-.81H280.75a.82.82,0,0,0-.82.81A.82.82,0,0,0,280.75,462.32Z" transform="translate(-276.43 -441.39)" fill="#f7f7f7"/><path d="M282.1,459.28h6a.82.82,0,0,0,.82-.81.82.82,0,0,0-.82-.82h-6a.82.82,0,0,0-.81.82A.81.81,0,0,0,282.1,459.28Z" transform="translate(-276.43 -441.39)" fill="#f7f7f7"/><path d="M286.53,463.79h-5.78a.82.82,0,0,0-.82.81.82.82,0,0,0,.82.82h5.78a.82.82,0,0,0,.82-.82.82.82,0,0,0-.82-.81Z" transform="translate(-276.43 -441.39)" fill="#f7f7f7"/></svg>