<svg id="圖層_1" data-name="圖層 1" xmlns="http://www.w3.org/2000/svg" viewBox="0 0 150 30"><path d="M17.24,19.91l-1.36,3.5a1,1,0,0,1-.93.64H13.33a1,1,0,0,1-1-1,1,1,0,0,1,.07-.34l1.06-2.86m7.94-5.52-3,9h6.2Zm0-6.88-3,9.05H14.71L19.77,2.78a1,1,0,0,1,.93-.66h1.79a1,1,0,0,1,.94.67l7.19,19.88a1,1,0,0,1-.55,1.3L30,24a1,1,0,0,1-.35.06H28a1,1,0,0,1-.94-.66Z" transform="translate(-0.01 0)" fill="#f7f7f7"/><path d="M45.25,22.85q0,7.16-6.52,7.15a7.56,7.56,0,0,1-4.9-1.6,5.1,5.1,0,0,1-2-3.78.37.37,0,0,1,.35-.39H35a.37.37,0,0,1,.36.31,3,3,0,0,0,1,1.7,3.09,3.09,0,0,0,2.24,1q3.27,0,3.27-4v-.88a5.09,5.09,0,0,1-4.29,1.83,5.46,5.46,0,0,1-4.52-2,7.71,7.71,0,0,1-1.63-5,8.16,8.16,0,0,1,1.75-5.35,5.61,5.61,0,0,1,4.57-2.15,5.17,5.17,0,0,1,3.51,1.12.37.37,0,0,0,.52,0,.38.38,0,0,0,.09-.25h0a.38.38,0,0,1,.37-.38h2.61a.38.38,0,0,1,.37.38h0ZM42.39,16.8a4.49,4.49,0,0,0-1-3.07,3.49,3.49,0,0,0-2.73-1.16,3.38,3.38,0,0,0-2.74,1.27,4.8,4.8,0,0,0-1,3.2c0,2.77,1.26,4.16,3.79,4.15a3.34,3.34,0,0,0,2.74-1.25A4.78,4.78,0,0,0,42.39,16.8Z" transform="translate(-0.01 0)" fill="#f7f7f7"/><path d="M61.25,17.08a7.46,7.46,0,0,1-2,5.35,6.74,6.74,0,0,1-5.15,2.08,6.88,6.88,0,0,1-5.19-2.08,8.18,8.18,0,0,1,0-10.67,6.83,6.83,0,0,1,5.17-2.08,7,7,0,0,1,5.19,2.06A7.38,7.38,0,0,1,61.25,17.08Zm-10.93.05a4.68,4.68,0,0,0,1.07,3.19,3.47,3.47,0,0,0,2.76,1.23,3.23,3.23,0,0,0,2.7-1.32,4.9,4.9,0,0,0,1-3.13,4.93,4.93,0,0,0-1-3.14,3.32,3.32,0,0,0-2.71-1.32,3.46,3.46,0,0,0-2.74,1.27,4.77,4.77,0,0,0-1.07,3.22Z" transform="translate(-0.01 0)" fill="#f7f7f7"/><path d="M66.42,10.54a.4.4,0,0,0,.38.39.39.39,0,0,0,.27-.11,4.82,4.82,0,0,1,3.35-1.14,3.66,3.66,0,0,1,1.31.24.4.4,0,0,1,.24.42l-.3,2.24a.39.39,0,0,1-.44.33h-.11a3,3,0,0,0-1.18-.24c-2.35,0-3.53,1.71-3.52,5.14v5.87a.38.38,0,0,1-.36.4h-2.6a.38.38,0,0,1-.38-.38h0V10.54a.38.38,0,0,1,.36-.4H66a.38.38,0,0,1,.39.37h0Z" transform="translate(-0.01 0)" fill="#f7f7f7"/><path d="M85.77,24.05H83.24a.39.39,0,0,1-.37-.37h0a.38.38,0,0,0-.36-.38h0a.3.3,0,0,0-.24.08,5.78,5.78,0,0,1-3.72,1.14A5.44,5.44,0,0,1,74,22.25,8.45,8.45,0,0,1,72.28,17,7.94,7.94,0,0,1,74,11.81a5.56,5.56,0,0,1,4.47-2.13,5.77,5.77,0,0,1,3.78,1.17.37.37,0,0,0,.52,0,.44.44,0,0,0,.08-.25h0a.38.38,0,0,1,.36-.38h2.54a.39.39,0,0,1,.37.37h0V23.67a.36.36,0,0,1-.34.38h0Zm-2.52-7a4.8,4.8,0,0,0-1.07-3.19A3.66,3.66,0,0,0,77,13.49l0,0h0c-.11.1-.22.2-.32.31a5.48,5.48,0,0,0,0,6.47,3.7,3.7,0,0,0,5.48,0A5,5,0,0,0,83.26,17Z" transform="translate(-0.01 0)" fill="#f7f7f7"/><path d="M115.52,12l-4.27,12a.59.59,0,0,1-.57.41h0a.61.61,0,0,1-.58-.42l-4-12a.6.6,0,0,0-.75-.39h0a.59.59,0,0,0-.41.49L103,23.54a.62.62,0,0,1-.6.52h-2.3a.63.63,0,0,1-.61-.63v-.1l3.31-20.69a.6.6,0,0,1,.6-.52h1.68a.6.6,0,0,1,.57.4l4.72,12.71a.6.6,0,0,0,1.14,0L116,2.53a.59.59,0,0,1,.57-.41h1.7a.6.6,0,0,1,.6.53l3,20.69a.63.63,0,0,1-.51.71H119a.61.61,0,0,1-.6-.53l-1.65-11.44a.61.61,0,0,0-1.18-.12Z" transform="translate(-0.01 0)" fill="#e64"/><path d="M136.18,24.05h-2.53a.39.39,0,0,1-.37-.37h0a.38.38,0,0,0-.36-.38h0a.3.3,0,0,0-.24.08A5.81,5.81,0,0,1,129,24.51a5.44,5.44,0,0,1-4.56-2.26A8.44,8.44,0,0,1,122.69,17a7.87,7.87,0,0,1,1.74-5.16,5.56,5.56,0,0,1,4.47-2.13,5.77,5.77,0,0,1,3.78,1.17.36.36,0,0,0,.49,0h0a.38.38,0,0,0,.09-.25h0a.38.38,0,0,1,.36-.38h2.54a.39.39,0,0,1,.37.37h0v13a.38.38,0,0,1-.36.38Zm-2.52-7a4.8,4.8,0,0,0-1.07-3.19,3.65,3.65,0,0,0-5.15-.35h0c-.11.1-.22.2-.32.31a5.45,5.45,0,0,0,0,6.47,3.7,3.7,0,0,0,5.23.25c.08-.08.17-.16.25-.25a4.88,4.88,0,0,0,1-3.27Z" transform="translate(-0.01 0)" fill="#e64"/><path d="M143.45,4.3a1.94,1.94,0,0,1-.59,1.4,1.88,1.88,0,0,1-2.64.12h0l-.09-.09a2,2,0,0,1,0-2.8h0a1.89,1.89,0,0,1,2.67-.09l.09.09A2,2,0,0,1,143.45,4.3ZM141.5,24.05h0a1.69,1.69,0,0,1-1.67-1.71h0V11.85a1.69,1.69,0,0,1,1.67-1.71h0a1.69,1.69,0,0,1,1.67,1.71h0V22.34a1.69,1.69,0,0,1-1.67,1.71Z" transform="translate(-0.01 0)" fill="#e64"/><path d="M148.33,24.05h0a1.69,1.69,0,0,1-1.67-1.71h0V1.71A1.68,1.68,0,0,1,148.31,0h0A1.69,1.69,0,0,1,150,1.68v0h0V22.34a1.69,1.69,0,0,1-1.67,1.71h0Z" transform="translate(-0.01 0)" fill="#e64"/><path d="M1,19.14H17.38a1,1,0,0,0,0-2H1a1,1,0,0,0,0,2Z" transform="translate(-0.01 0)" fill="#e64"/><path d="M2.67,16.41H10a1,1,0,1,0,0-2H2.67a1,1,0,1,0,0,2Z" transform="translate(-0.01 0)" fill="#e64"/><path d="M8.1,19.94H1a1,1,0,0,0,0,2h7.1a1,1,0,0,0,0-2Z" transform="translate(-0.01 0)" fill="#e64"/></svg>